<svg xmlns="http://www.w3.org/2000/svg" width="64" height="64" viewBox="0 0 64 64"><path fill="#df040b" d="M50.1 31.5c-.8-.2-2.7-.6-4.4-1 0 0 .1 0 .1-.1 1.3-1.2 3.9-6.1 3.9-6.1.5-1.2-.7-3.1-.7-3.1v-.1c-2.1-3.1-5.4-5.6-8.8-7.1 0 0-1.9-.3-2.9 1.2-.5.7-1.5 2.5-2.4 4.1 0-.2-.1-.4-.1-.5-.7-1.7-4.5-5.7-4.5-5.7-.9-.9-3.2-.4-3.2-.4H27c-3.7 1-7 3.3-9.5 6 0 0-.9 1.7.2 3.2.5.7 1.9 2.2 3.1 3.6h-.4c-1.8.2-6.8 2.7-6.8 2.7-1.1.6-1.3 2.9-1.3 2.9v.1c-.1 3.8 1.1 7.7 3 10.9 0 0 1.4 1.4 3.1.7.8-.3 2.6-1.1 4.3-1.9-.3 2.1.1 6.9.1 6.9.2 1.3 2.3 2.3 2.3 2.3l.1.1c3.5 1.5 7.6 1.7 11.2 1.2 0 0 1.8-.8 1.8-2.6 0-.9-.1-2.9-.2-4.7.1.1.3.2.3.3 1.6.9 7 1.8 7 1.8 1.3.1 2.8-1.6 2.8-1.6l.1-.1c2.3-3 3.6-6.9 4-10.6 0 0-.3-1.9-2.1-2.4zm-25.5-9.4c2.2-1.7 4.8-2.6 7.8-2.6.6 0 1.8.1 2.3.2-.9 1.6-1.7 3-1.7 3s-.5.7-.6 1.7c0-.3-.1-1-1.1-1.6-1.4-.8-2.9.6-4.5.8-1.6.2-2.6-.1-2.2-1.5zm-1.6 8c-1.2 1.1-.3 3-.5 4.5s-.8 2.5-2.1 1.6c-1-2.5-1.1-5.4-.3-8.2.2-.6.6-1.5.8-2 1.2 1.3 2.2 2.5 2.2 2.5s.4.6 1.1.9c-.3.1-.7.2-1.2.7zm9.7 14.3c-2.7 0-5.4-.9-7.7-2.7-.3-.3-.8-.7-1.2-1.1 1.3-.6 2.4-1.1 2.4-1.1s1.1-.4 1.7-1.3c-.2.3-.3.9.1 1.7.6 1.5 2.7 1.3 4 2.1 1.3.7 1.9 1.6.7 2.4zm4-6.6c-.3-.2-.7-.4-1.3-.5 0 0-5.5-.9-7.3.5l-.2.2c.3-.5.4-1.1.2-1.8 0 0-1.1-4.9-2.8-6.4.5.1 1 0 1.6-.4 0 0 4.9-2.8 5.4-4.9v-.1c0 .7.2 1.4.9 2 0 0 3.7 3.3 6 3.6-.4.2-.8.6-1 1.2 0 .1-1.8 4.2-1.5 6.6zm3.2 4.7c-.5.4-1.4.9-1.9 1.2-.1-1.8-.2-3.4-.2-3.4s0-.6-.2-1.2c.3.1.7.2 1.2.1 1.6-.2 2-2.2 3-3.4 1.1-1.1 2.1-1.5 2.6-.1-.6 2.7-2.2 5.1-4.5 6.8zm1.9-12.7s-.6-.2-1.4-.1c.2-.2.5-.6.6-1.3.4-1.6-1.5-2.6-2.2-4-.8-1.3-.8-2.4.7-2.4 2.3 1.5 4.1 3.7 5 6.5.2.5.4 1.4.5 1.9-1.8-.3-3.2-.6-3.2-.6z"/></svg>