<svg xmlns="http://www.w3.org/2000/svg" width="46" height="46" viewBox="0 0 46 46" xml:space="preserve"><path fill="#FFF" stroke="#D3D5DD" stroke-miterlimit="10" d="M32.8 1 41 8.8v34.8c0 .8-.7 1.4-1.5 1.4h-33c-.8 0-1.5-.6-1.5-1.4V2.4C5 1.6 5.7 1 6.5 1h26.3z"/><path fill="#D3D5DD" d="M41 8.8h-8.2V1L41 8.8zM36 11.5c.5 0 1 .5 1 1s-.5 1-1 1H10c-.6 0-1-.5-1-1s.4-1 1-1h26z"/><path fill="#50ab87" d="M13 36.5h20v3H13zM27.8 25.9l1.7 1.9-6.5 5.7-6.5-5.7 1.7-1.9 3.5 3.2V17.5h2.6v11.6z"/><path fill="#D3D5DD" d="M27.8 6.5c.5 0 1 .5 1 1s-.5 1-1 1H10c-.6 0-1-.5-1-1s.4-1 1-1h17.8z"/></svg>