<svg xmlns="http://www.w3.org/2000/svg" width="46" height="46" viewBox="0 0 46 46" xml:space="preserve"><path fill="#FFF" stroke="#D3D5DD" stroke-miterlimit="10" d="M32.8 1 41 8.8v34.8c0 .8-.7 1.4-1.5 1.4h-33c-.8 0-1.5-.6-1.5-1.4V2.4C5 1.6 5.7 1 6.5 1h26.3z"/><path fill="#D3D5DD" d="M41 8.8h-8.2V1L41 8.8z"/><path d="m31.4 37.4 1.6.4c-.2.4-.3.7-.5 1-.2.3-.4.5-.7.6-.5.4-1.1.6-1.8.6-.6 0-1.1-.1-1.5-.3-.4-.2-.7-.5-1-.9-.2-.4-.4-.8-.5-1.3-.1-.5-.2-1-.2-1.5s.1-1 .2-1.5.3-.9.5-1.3.6-.7 1-.9c.4-.2.9-.3 1.5-.3s1.2.1 1.7.4c.3.1.5.4.6.6.2.3.3.6.5 1.1l-1.6.4c-.1-.3-.3-.6-.5-.8-.2-.2-.5-.3-.9-.3-.2 0-.4 0-.6.1-.2.1-.3.2-.4.4-.1.1-.2.3-.3.5-.1.2-.1.4-.2.6 0 .2-.1.4-.1.6v.5c0 .8.1 1.5.4 1.9.2.4.6.6 1.1.6.2 0 .4 0 .5-.1.1-.1.3-.1.4-.2.1-.1.2-.2.3-.4.3-.1.4-.3.5-.5zM26.2 34.5c.1.5.2 1 .2 1.5 0 1.3-.3 2.2-.9 2.9-.6.7-1.4 1.1-2.5 1.1-.6 0-1.1-.1-1.6-.3-.4-.2-.8-.5-1-.9-.3-.4-.5-.8-.6-1.3-.1-.5-.2-1-.2-1.5s.1-1 .2-1.5.3-.9.6-1.3.6-.7 1-.9c.4-.2 1-.3 1.6-.3.6 0 1.1.1 1.6.3.4.2.8.5 1 .9.2.4.4.8.6 1.3zM24.6 36c0-.9-.1-1.5-.4-1.9-.3-.4-.7-.6-1.2-.6-.6 0-1 .2-1.3.6-.3.4-.4 1.1-.4 1.9s.1 1.5.4 1.9c.3.4.7.6 1.3.6.6 0 1-.2 1.2-.6.3-.4.4-1 .4-1.9zM19 34.4c.1.5.2 1 .2 1.6 0 .6-.1 1.2-.2 1.7s-.4.9-.7 1.2c-.6.7-1.5 1-2.7 1H13v-7.8h2.6c.6 0 1.2.1 1.6.3.5.2.8.4 1.1.8.4.3.6.7.7 1.2zm-1.5 2.5c.1-.3.1-.6.1-1s0-.8-.1-1.1c-.1-.3-.2-.6-.4-.8-.3-.4-.8-.6-1.5-.6h-.9v4.9h.9c.4 0 .7-.1 1-.2.2-.1.5-.3.6-.5s.2-.4.3-.7z"/><path fill="#1B64C7" d="M29.1 12 27 21.9 24.9 12H21.1L19 21.9 16.9 12h-2.6l3.1 13.5h3.3l2.3-9.9 2.3 9.9h3.3L31.7 12z"/></svg>