<svg xmlns="http://www.w3.org/2000/svg" width="24" height="24" viewBox="0 0 24 24" fill="none" stroke="currentColor" stroke-width="1.5" stroke-linecap="round" stroke-linejoin="round"><path d="M17 11.3V6.4c0-1.2-1-2.2-2.2-2.2h0-2.2M5.8 4.2H3.5c-1.2 0-2.2 1-2.2 2.2h0v13.3c0 1.2 1 2.2 2.2 2.2h11.1c1.2 0 2.2-1 2.2-2.2h0V17"/><path d="M8.1 2h2.2c1.2 0 2.2 1 2.2 2.2h0c0 1.2-1 2.2-2.2 2.2h0-2.2c-1.2 0-2.2-1-2.2-2.2h0C5.8 3 6.8 2 8.1 2h0zM5.8 12.9L8 15.1l4.4-4.4M12.8 18.3h2.6l6.8-6.8c.7-.7.7-1.9-.1-2.6-.7-.7-1.8-.7-2.5 0l-6.8 6.8v2.6M18.9 9.6l2.6 2.6"/></svg>