<svg xmlns="http://www.w3.org/2000/svg" width="64" height="64" viewBox="0 0 64 64"><path fill="#dbbb91" d="M24.6 21.7s-3.7 5-4.6 5.8c-.9.8-3 2.1-4.1 6.3s-1.3 6.6-1.5 8.2c-.2 1.6-1.9 3.5-1.5 5 .4 1.5 2 4.3 4.5 6.1 2.5 1.8 4.3 2.6 6.5 2.1s7.7-4.6 10.4-9.4c2.6-4.8-9.7-24.1-9.7-24.1zM41.5 37.4s1.8 1.4 2.8 2.1c1 .7 2.4.4 2.6-.9.2-1.3-1-3.3-2.7-4.1-1.7-.7-2.4-1.2-2.4-1.2l-.3 4.1zM41.8 31.6s1.8 1.4 2.8 2.1c1 .7 2.4.4 2.6-.9.2-1.3-1-3.3-2.7-4.1-1.7-.7-2.4-1.2-2.4-1.2l-.3 4.1zM41.5 24s1.7 1.3 2.7 2c.9.7 2.3.4 2.4-.9s-.9-3.2-2.5-3.9c-1.6-.7-2.3-1.1-2.3-1.1l-.3 3.9zM41 42.8s1.5 1.2 2.3 1.8c.8.6 2 .3 2.1-.8.1-1.1-.8-2.8-2.2-3.4-1.4-.6-2-1-2-1l-.2 3.4z"/><path fill="#30333d" d="M42.2 48.5H25.1c-1.1 0-2-.9-2-2V12.7c0-1.1.9-2 2-2h17.1c1.1 0 2 .9 2 2v33.7c0 1.2-.9 2.1-2 2.1z"/><path fill="#c2e8ef" d="M24.9 15.1h17.6v31.4H24.9z"/><circle fill="#b2c5ce" cx="33.9" cy="12.9" r=".4"/><path fill="#dbbb91" d="M22.1 28.1s2.8-1.4 5.3-1.4 3.9-.2 5.8 0c1.8.2 3.4 3.9-2.1 4.9-5.7 1-9 4.5-9 4.5v-8z"/></svg>