<svg xmlns="http://www.w3.org/2000/svg" width="24" height="24" viewBox="0 0 24 24"><g fill-rule="evenodd" clip-rule="evenodd" fill="currentColor"><path d="M15.6 6.4s-1.5 1.4-2 1.6c-.5.2-1.1.8-.4 1.8.8 1.1 3 4 2.9 6.9 0 0 .8-2.1-.8-5.4-1.6-3.3-1.1-2.2.3-4.9zM11.3 13.1c-1.3-.7-2.7 0-2.4 1.3.3 1.2-.8 2.9-.8 2.9.1.1.1-.1.5-.2.6-.2.9.3 1 .4.1.1.2.4.3.4.1 0 0-.4-.1-.6-.2-.3 0-.6-.1-.7-.1-.1-.3.3-1 0 .2-.4.8-1 1-1 .3-.1.7-.1 1.1-.3.5-.3.7-.8.3-.5-.4.3-1.2.6-1.7-.2-.7-1 1.2-1.4 2-.8.3.3.8.7 1 1.3.7 2.4-.8 3.3-1.7 2.9-.7-.1-.8-.1-1.4.3-.7.3-1-.5-1-.3-.2 1.3 1.6 1 1.6 1s-.1.2.1.3c.2.1.8-.3.8 0-.1.2-.8.3-.8.3.9.3 2.8.3 3.3-1.9.5-2.3-.8-4-2-4.6z"/><path d="M22.2 6.3c0-2.1-.9-4.2-3.3-4.3-3.4 0-5.8 3.3-7 4.3C7.9 2.7 7 2 4.9 2 3.8 2 2.4 3.1 2.1 5.4c-.1 1 .3 3.4.3 3.4s-1.6 1.1.4 2.6c.1.8.6 3.9 1.1 5.4.7 2.3 1.8 5.2 8.2 5.2 6.6 0 7.1-2.8 7.6-3.7.4-.9 2.4-6.4 2.5-12zM4.6 3.7c1.2-.5 2.1.3 2.6.5.5.3 4 3.3 4 3.3s-3.6.3-5 .2c-1.2 0-1.8.3-2.6.9-.3-2.7-.2-4.3 1-4.9zm7.2 16.8c-5.7 1-6.7-4.2-7-5.6-.3-.8-.5-2.2-.8-3.8.9-.1 1.5 0 2.3 0 1.4.1 2.1.3 2.5.5.5.5.2 1.2.2 1.2 1.1-.5 2-.5 3-.1 3 1.4 4.2 7-.2 7.8zM20.4 10c-.2 1.4-.5 2.7-1 4.6-1.3 6.4-5.1 5.8-5.1 5.8 2.5-3.8.3-7.5-2.7-8.9-3.3-1.6-7.9-1.2-7.9-1.2l-.5.4s-.2-.4-.3-.7c-.1-.5 1.1-.7 1.2-.7.1 0 .5.5.5.5.1-.2.6-.5.8-.5.2-.2.2-.3.2-.3H4.3c.1-.2.7-.7 1.3-.7.6.1 4.2-.1 4.2-.1-.4.5-1.6 1.3-1.6 1.3 1.1-.1 4.2-1.8 5.9-3.3 1.6-1.6 3.8-3.3 5.4-2.5 1.1.7 1.4 2.4.9 6.3z"/></g></svg>