<svg xmlns="http://www.w3.org/2000/svg" width="46" height="46" viewBox="0 0 46 46" xml:space="preserve"><path fill="#FFF" stroke="#D3D5DD" stroke-miterlimit="10" d="M32.8 1 41 8.8v34.8c0 .8-.7 1.4-1.5 1.4h-33c-.8 0-1.5-.6-1.5-1.4V2.4C5 1.6 5.7 1 6.5 1h26.3z"/><path fill="#D3D5DD" d="M41 8.8h-8.2V1L41 8.8zM22.5 13.5h5v3h-5zM22.5 7.5h5v3h-5zM22.5 1.5h5v3h-5zM27.5 16.5V21c0 2.5-2.2 4.5-5 4.5-1.3 0-2.6-.5-3.5-1.3-.9-.9-1.4-2-1.4-3.2v-4.5h9.9zm-3.3 4.8v-.8h-3.3v.8c0 .4.2.8.5 1.1.3.3.7.4 1.2.4.8 0 1.6-.7 1.6-1.5zM17.5 10.5h5v3h-5zM17.5 4.5h5v3h-5z"/><path d="M31.8 32.8c.2.3.2.7.2 1.1 0 .8-.3 1.4-.9 1.8-.6.4-1.4.6-2.4.6h-1.4v3.2h-2v-8h3.4c.5 0 .9 0 1.3.1s.8.2 1 .4c.3.2.6.5.8.8zM30 34c0-.2 0-.3-.1-.5 0-.1-.1-.2-.2-.3-.2-.1-.6-.2-1.2-.2h-1.3v1.9h1.9c.2 0 .3-.1.5-.1l.3-.3c.1-.2.1-.3.1-.5zM21.9 31.5h2v8h-2zM20.7 38v1.5H14v-1.4l4.1-5.1h-3.8v-1.5h6.3v1.3L16.4 38z"/></svg>