<svg xmlns="http://www.w3.org/2000/svg" width="46" height="46" viewBox="0 0 46 46"><path fill="#fff" stroke="#D3D5DD" stroke-miterlimit="10" d="M32.8 1L41 8.8v34.8c0 .8-.7 1.4-1.5 1.4h-33c-.8 0-1.5-.6-1.5-1.4V2.4C5 1.6 5.7 1 6.5 1h26.3z"/><path fill="#d3d5dd" d="M41 8.8h-8.2V1z"/><path fill="#f94646" d="M32 21.8c.1-.2-.2-.5-.3-.6-.2-.1-1.1-.6-2.9-.7 1.2 1.1 1.5 1.2 2.1 1.4.6.2 1 .1 1.1-.1zm.8-2.3c1.5.9 1.3 2.4 1.1 3-.2.5-1.3 1.9-3.4 1.3-1.1-.3-2.1-.9-4.4-3.3-1.1.1-2.3.3-3.5.5-1 .2-1.9.4-2.7.7-2.7 5.3-4 5.9-4.5 6.1-.4.1-2.3.3-3-1-.2-.4-.8-1.8.9-3.6.7-.7 2-2 5.2-3.1.4-.9.9-1.8 1.3-2.8.5-1.1.9-2.1 1.2-2.9-1.3-2.1-1.5-3.7-1.5-5.5 0-2.1 1.5-2.8 2.4-2.8.6 0 2.3.6 2.4 3.3 0 1.1-.1 2.3-1.1 4.8.7 1 1.5 2 2.6 3.3.4.4.7.8 1 1.1.3-.1 4.4-.1 6 .9zm-8.5-.8s-1.4-1.7-2-2.4c0 0-.5 1.1-.8 1.7-.2.4-.5 1.2-.5 1.2.4-.1.7-.2 1.1-.2.8 0 1.5-.2 2.2-.3zm-2.4-6.9c.4-1.2.4-1.9.4-2.4 0-.9-.3-1.3-.5-1.4-.2.1-.3.4-.3.9-.1.9 0 1.7.4 2.9zm-6.8 13.7c.4-.4 1-1.2 1.8-2.6-1.3.7-1.9 1.3-2.3 1.7-.6.6-.6 1-.6 1.2.2.4.7 0 1.1-.3z"/><path d="M33 32v1.5h-3.6v1.6h2.7v1.5h-2.7V40h-1.9v-8zM24.8 36c0-2.1-1.2-2.5-2-2.5h-1v5.1h.9c.7-.1 2.1-.5 2.1-2.6zm1.8 0c0 3.7-2.2 4-3.8 4H20v-8h2.7c1 0 3.9.3 3.9 4zM19.1 34.4c0 2.3-2.1 2.4-3 2.4h-1.3V40H13v-8h3.1c.4 0 3 .2 3 2.4zm-1.8.1c0-.9-.9-1-1.4-1h-1.1v1.9h1.1c.2 0 1.4 0 1.4-.9z"/></svg>