<svg xmlns="http://www.w3.org/2000/svg" width="46" height="46" viewBox="0 0 46 46" xml:space="preserve"><path fill="#FFF" stroke="#D3D5DD" stroke-miterlimit="10" d="M40.9 38.8H5.1c-.8 0-1.4-.6-1.4-1.4V8.6c0-.8.6-1.4 1.4-1.4h35.8c.8 0 1.4.6 1.4 1.4v28.8c0 .8-.6 1.4-1.4 1.4z"/><path fill="#4FCCFC" d="M7.2 35.1V10.9h31.6v24.2H7.2z"/><path fill="#FFF533" d="M30.1 13.7c1.7 0 3.2 1.5 3.2 3.2 0 1.8-1.4 3.2-3.2 3.2-1.7 0-3.1-1.5-3.1-3.2-.1-1.7 1.3-3.2 3.1-3.2z"/><path fill="#3EB57C" d="m30.3 25.3-4 4.7-4.2 5.1h16.7z"/><path fill="#309E6C" d="m26.3 30-7.6-9.8L7.2 35.1h23z"/></svg>