<svg xmlns="http://www.w3.org/2000/svg" width="46" height="46" viewBox="0 0 46 46" xml:space="preserve"><path fill="#FFF" stroke="#D3D5DD" stroke-miterlimit="10" d="M32.8 1 41 8.8v34.8c0 .8-.7 1.4-1.5 1.4h-33c-.8 0-1.5-.6-1.5-1.4V2.4C5 1.6 5.7 1 6.5 1h26.3z"/><path fill="#D3D5DD" d="M41 8.8h-8.2V1L41 8.8z"/><path d="m32.9 33.8-1.7.5c-.1-.3-.3-.5-.5-.7-.2-.2-.5-.3-.9-.3h-.4c-.1 0-.2.1-.4.1-.1.1-.2.1-.3.2-.1.1-.1.2-.1.3 0 .1 0 .2.1.3.1.1.2.2.4.3.4.2.8.4 1.3.5.7.2 1.3.5 1.8.8.6.4.8.9.8 1.6 0 .8-.3 1.3-.8 1.8-.5.4-1.3.6-2.3.6-.6 0-1.3-.1-1.9-.4-.3-.2-.6-.4-.8-.6-.2-.2-.4-.5-.6-.9l1.6-.6c.1.2.2.3.3.5.1.2.2.3.4.4.1.1.3.2.5.2.2.1.4.1.6.1h.5c.2 0 .3-.1.4-.1l.3-.3c.1-.1.1-.3.1-.4 0-.3-.2-.5-.5-.6-.3-.2-.7-.4-1.2-.5-.9-.3-1.6-.6-2-1-.5-.4-.7-.9-.7-1.5s.3-1.1.8-1.5c.6-.4 1.2-.6 2.1-.6.7 0 1.3.1 1.9.4.3.2.5.3.7.6.1.1.3.4.5.8zM26.1 38.4v1.4h-5.6V32h1.9v6.4zM17.4 35.8l2.4 4h-2.1l-1.3-2.4-1.3 2.4H13l2.4-4-2.3-3.8h2.1l1.2 2.2 1.2-2.2h2.1z"/><path fill="#16824A" d="M29.3 10.1h-3.2L23 15.3l-3.1-5.2h-3.2l4.7 7.8-4.7 7.8h3.2l3.1-5.2 3.1 5.2h3.2l-4.7-7.8z"/></svg>